<svg width="20" height="27" viewBox="0 0 20 27" fill="none" xmlns="http://www.w3.org/2000/svg">
<path d="M10 27C9.26667 27 8.63889 26.7356 8.11667 26.2069C7.59444 25.6781 7.33333 25.0425 7.33333 24.3H12.6667C12.6667 25.0425 12.4056 25.6781 11.8833 26.2069C11.3611 26.7356 10.7333 27 10 27ZM4.66667 22.95V20.25H15.3333V22.95H4.66667ZM5 18.9C3.46667 17.9775 2.25 16.74 1.35 15.1875C0.45 13.635 0 11.9475 0 10.125C0 7.3125 0.972222 4.92188 2.91667 2.95312C4.86111 0.984375 7.22222 0 10 0C12.7778 0 15.1389 0.984375 17.0833 2.95312C19.0278 4.92188 20 7.3125 20 10.125C20 11.9475 19.55 13.635 18.65 15.1875C17.75 16.74 16.5333 17.9775 15 18.9H5ZM5.8 16.2H14.2C15.2 15.48 15.9722 14.5913 16.5167 13.5338C17.0611 12.4763 17.3333 11.34 17.3333 10.125C17.3333 8.055 16.6222 6.3 15.2 4.86C13.7778 3.42 12.0444 2.7 10 2.7C7.95556 2.7 6.22222 3.42 4.8 4.86C3.37778 6.3 2.66667 8.055 2.66667 10.125C2.66667 11.34 2.93889 12.4763 3.48333 13.5338C4.02778 14.5913 4.8 15.48 5.8 16.2Z" fill="white"/>
</svg>
