<svg width="55" height="55" viewBox="0 0 55 55" fill="none" xmlns="http://www.w3.org/2000/svg">
<path d="M36.575 40.425L40.425 36.575L30.25 26.4V13.75H24.75V28.6L36.575 40.425ZM27.5 55C23.6958 55 20.1208 54.2781 16.775 52.8344C13.4292 51.3906 10.5188 49.4313 8.04375 46.9562C5.56875 44.4813 3.60938 41.5708 2.16563 38.225C0.721875 34.8792 0 31.3042 0 27.5C0 23.6958 0.721875 20.1208 2.16563 16.775C3.60938 13.4292 5.56875 10.5188 8.04375 8.04375C10.5188 5.56875 13.4292 3.60938 16.775 2.16563C20.1208 0.721875 23.6958 0 27.5 0C31.3042 0 34.8792 0.721875 38.225 2.16563C41.5708 3.60938 44.4813 5.56875 46.9562 8.04375C49.4313 10.5188 51.3906 13.4292 52.8344 16.775C54.2781 20.1208 55 23.6958 55 27.5C55 31.3042 54.2781 34.8792 52.8344 38.225C51.3906 41.5708 49.4313 44.4813 46.9562 46.9562C44.4813 49.4313 41.5708 51.3906 38.225 52.8344C34.8792 54.2781 31.3042 55 27.5 55ZM27.5 49.5C33.5958 49.5 38.7865 47.3573 43.0719 43.0719C47.3573 38.7865 49.5 33.5958 49.5 27.5C49.5 21.4042 47.3573 16.2135 43.0719 11.9281C38.7865 7.64271 33.5958 5.5 27.5 5.5C21.4042 5.5 16.2135 7.64271 11.9281 11.9281C7.64271 16.2135 5.5 21.4042 5.5 27.5C5.5 33.5958 7.64271 38.7865 11.9281 43.0719C16.2135 47.3573 21.4042 49.5 27.5 49.5Z" fill="#00AEEF"/>
</svg>
