<svg width="42" height="42" viewBox="0 0 42 42" fill="none" xmlns="http://www.w3.org/2000/svg">
<path d="M31.5654 14.2559C35.725 14.2559 37.9636 15.6041 39.2412 17.6328C40.5856 19.7675 41 22.8497 41 26.5967V41H34.2998V28.3496C34.2998 26.7668 34.296 24.7081 33.6387 23.0488C33.2986 22.1905 32.7663 21.3884 31.9336 20.8076C31.0986 20.2254 30.0465 19.9248 28.7715 19.9248C27.5098 19.9249 26.4425 20.1716 25.5615 20.6592C24.6746 21.1501 24.0357 21.8525 23.5869 22.666C22.7154 24.246 22.5498 26.2689 22.5498 28.1152V41H15.8496V14.959H22.2031V18.7842H23.9277L24.209 18.251C25.2066 16.3603 27.7163 14.2559 31.5654 14.2559ZM8.40332 14.959V41H1.69336V14.959H8.40332ZM5.04395 1C6.10789 1.00005 7.13868 1.42775 7.89941 2.18848C8.66007 2.94923 9.08789 3.98003 9.08789 5.04395C9.08778 7.28795 7.2639 9.13466 5.04395 9.13477C2.82391 9.13477 1.00011 7.28801 1 5.04395C1 3.97155 1.427 2.94996 2.18848 2.18848C2.94925 1.4277 3.97994 1 5.04395 1Z" stroke="#D1D1D1" stroke-width="2"/>
</svg>
