<svg width="55" height="55" viewBox="0 0 55 55" fill="none" xmlns="http://www.w3.org/2000/svg">
<path d="M27.5 55C23.6958 55 20.1208 54.2781 16.775 52.8344C13.4292 51.3906 10.5188 49.4313 8.04375 46.9562C5.56875 44.4813 3.60938 41.5708 2.16563 38.225C0.721875 34.8792 0 31.3042 0 27.5C0 23.6958 0.721875 20.1208 2.16563 16.775C3.60938 13.4292 5.56875 10.5188 8.04375 8.04375C10.5188 5.56875 13.4292 3.60938 16.775 2.16563C20.1208 0.721875 23.6958 0 27.5 0C31.3042 0 34.8792 0.721875 38.225 2.16563C41.5708 3.60938 44.4813 5.56875 46.9562 8.04375C49.4313 10.5188 51.3906 13.4292 52.8344 16.775C54.2781 20.1208 55 23.6958 55 27.5C55 31.3042 54.2781 34.8792 52.8344 38.225C51.3906 41.5708 49.4313 44.4813 46.9562 46.9562C44.4813 49.4313 41.5708 51.3906 38.225 52.8344C34.8792 54.2781 31.3042 55 27.5 55ZM27.5 49.5C33.6417 49.5 38.8438 47.3688 43.1063 43.1063C47.3688 38.8438 49.5 33.6417 49.5 27.5C49.5 21.3583 47.3688 16.1562 43.1063 11.8938C38.8438 7.63125 33.6417 5.5 27.5 5.5C21.3583 5.5 16.1562 7.63125 11.8938 11.8938C7.63125 16.1562 5.5 21.3583 5.5 27.5C5.5 33.6417 7.63125 38.8438 11.8938 43.1063C16.1562 47.3688 21.3583 49.5 27.5 49.5ZM27.5 44C22.9167 44 19.0208 42.3958 15.8125 39.1875C12.6042 35.9792 11 32.0833 11 27.5C11 22.9167 12.6042 19.0208 15.8125 15.8125C19.0208 12.6042 22.9167 11 27.5 11C32.0833 11 35.9792 12.6042 39.1875 15.8125C42.3958 19.0208 44 22.9167 44 27.5C44 32.0833 42.3958 35.9792 39.1875 39.1875C35.9792 42.3958 32.0833 44 27.5 44ZM27.5 38.5C30.525 38.5 33.1146 37.4229 35.2687 35.2687C37.4229 33.1146 38.5 30.525 38.5 27.5C38.5 24.475 37.4229 21.8854 35.2687 19.7313C33.1146 17.5771 30.525 16.5 27.5 16.5C24.475 16.5 21.8854 17.5771 19.7313 19.7313C17.5771 21.8854 16.5 24.475 16.5 27.5C16.5 30.525 17.5771 33.1146 19.7313 35.2687C21.8854 37.4229 24.475 38.5 27.5 38.5ZM27.5 33C25.9875 33 24.6927 32.4615 23.6156 31.3844C22.5385 30.3073 22 29.0125 22 27.5C22 25.9875 22.5385 24.6927 23.6156 23.6156C24.6927 22.5385 25.9875 22 27.5 22C29.0125 22 30.3073 22.5385 31.3844 23.6156C32.4615 24.6927 33 25.9875 33 27.5C33 29.0125 32.4615 30.3073 31.3844 31.3844C30.3073 32.4615 29.0125 33 27.5 33Z" fill="#00AEEF"/>
</svg>
