<svg width="42" height="42" viewBox="0 0 42 42" fill="none" xmlns="http://www.w3.org/2000/svg">
<path d="M20.9902 0.5C26.417 0.5 31.5213 2.61281 35.3555 6.45605C39.1991 10.3089 41.5 15.4075 41.5 20.8223C41.4998 32.0147 32.1859 41.1348 20.9902 41.1348H20.9814C17.5773 41.1348 14.2379 40.283 11.2744 38.6641L11.0996 38.5693L10.9072 38.6191L0.710938 41.2959L3.43555 31.3506L3.49023 31.1494L3.38672 30.9697C1.61182 27.8865 0.677734 24.3909 0.677734 20.8125C0.677734 9.61377 9.79155 0.500211 20.9902 0.5ZM21 3.01562C11.1803 3.01562 3.19336 11.0018 3.19336 20.8125C3.19336 24.1776 4.12899 27.4483 5.91406 30.2852L6.20898 30.7539L4.52344 36.9277L4.2959 37.7627L5.13281 37.543L11.4727 35.8799L11.9219 36.1484H11.9229C14.6536 37.7695 17.7887 38.6279 20.9902 38.6279C30.6403 38.6279 38.7281 30.8964 38.9785 21.2812L38.9844 20.8223C38.9939 16.0524 36.9236 11.5885 33.5791 8.23438C30.2227 4.86833 25.7546 3.01562 21 3.01562ZM13.6123 11.7129C13.9634 11.7129 14.2939 11.7129 14.5752 11.7305H14.5771C14.6349 11.7339 14.6924 11.7335 14.7314 11.7334C14.7757 11.7333 14.8068 11.7337 14.8359 11.7354C14.889 11.7384 14.9177 11.7458 14.9414 11.7568C14.9758 11.7729 15.093 11.841 15.248 12.1611L15.3164 12.3145C15.5319 12.8344 15.8984 13.7308 16.2295 14.5352C16.5535 15.3222 16.8571 16.0549 16.9336 16.208C16.9856 16.3121 17.013 16.3923 17.0205 16.4609C17.0269 16.5202 17.0204 16.5859 16.9805 16.6699C16.5211 17.5886 16.0571 18.0188 15.7256 18.373C15.5717 18.5375 15.3671 18.7624 15.29 19.0547C15.202 19.3891 15.3011 19.6987 15.4678 19.9854V19.9863C16.5014 21.7602 17.5446 22.9737 18.7334 23.9404C19.914 24.9004 21.222 25.6016 22.751 26.3662V26.3672C23.0444 26.5166 23.3583 26.6212 23.6826 26.5811C24.0261 26.5384 24.2818 26.3469 24.4805 26.1172C24.782 25.77 25.8009 24.5809 26.1699 24.0225C26.2328 23.9273 26.2796 23.8852 26.3047 23.8672C26.3245 23.8531 26.3361 23.85 26.3477 23.8486C26.3657 23.8465 26.4036 23.8466 26.4746 23.8633C26.5472 23.8804 26.6335 23.9097 26.75 23.9531L26.7588 23.9561C26.9652 24.029 27.6919 24.3681 28.4707 24.7432C29.233 25.1103 29.9975 25.4882 30.251 25.6172L30.2578 25.6211C30.5412 25.7602 30.7217 25.8392 30.8721 25.9238C30.9668 25.9772 31.0054 26.0087 31.0176 26.0205C31.02 26.032 31.0277 26.0673 31.0332 26.1367C31.0422 26.2501 31.0424 26.4101 31.0254 26.6094C30.9915 27.0068 30.8926 27.5299 30.6914 28.0986C30.5333 28.5455 30.0273 29.0508 29.3535 29.4834C28.6917 29.9083 27.99 30.1851 27.582 30.2461C26.7973 30.3619 26.1197 30.3888 25.2461 30.2236C24.3576 30.0557 23.2482 29.6857 21.6104 28.9785H21.6113C17.1711 27.0573 14.0733 22.8987 13.1729 21.6309L12.9238 21.2793C12.7903 21.0968 12.2884 20.4248 11.8164 19.4941C11.3345 18.5439 10.9063 17.3672 10.9062 16.2002C10.9062 13.8538 12.1132 12.7239 12.5918 12.1992C12.96 11.8023 13.3805 11.7129 13.6123 11.7129Z" stroke="#D1D1D1"/>
</svg>
